<?xml version="1.0" standalone="no"?>
<!DOCTYPE svg PUBLIC "-//W3C//DTD SVG 20010904//EN"
 "http://www.w3.org/TR/2001/REC-SVG-20010904/DTD/svg10.dtd">
<svg version="1.0" xmlns="http://www.w3.org/2000/svg"
 width="260.000000pt" height="260.000000pt" viewBox="0 0 260.000000 260.000000"
 preserveAspectRatio="xMidYMid meet">
<metadata>
Created by potrace 1.14, written by Peter Selinger 2001-2017
</metadata>
<g transform="translate(0.000000,260.000000) scale(0.100000,-0.100000)"
fill="#000000" stroke="none">
<path d="M1180 2594 c-14 -2 -59 -9 -100 -15 -157 -23 -359 -104 -514 -207
-95 -62 -270 -238 -336 -337 -154 -229 -224 -457 -224 -730 -1 -167 12 -255
56 -395 64 -203 163 -365 318 -521 255 -256 557 -383 915 -383 167 -1 255 12
395 56 204 65 366 164 521 318 257 255 383 556 383 915 1 167 -12 255 -56 395
-64 203 -163 365 -318 521 -189 190 -394 303 -655 360 -86 18 -328 33 -385 23z
m454 -1193 c175 -304 315 -555 313 -557 -2 -2 -290 -3 -639 -2 l-635 3 104
185 c58 102 191 334 295 515 105 182 201 349 215 373 14 24 26 42 28 40 1 -2
145 -252 319 -557z"/>
</g>
</svg>
