<?xml version="1.0" standalone="no"?>
<!DOCTYPE svg PUBLIC "-//W3C//DTD SVG 20010904//EN"
 "http://www.w3.org/TR/2001/REC-SVG-20010904/DTD/svg10.dtd">
<svg version="1.0" xmlns="http://www.w3.org/2000/svg"
 width="260.000000pt" height="260.000000pt" viewBox="0 0 260.000000 260.000000"
 preserveAspectRatio="xMidYMid meet">
<metadata>
Created by potrace 1.14, written by Peter Selinger 2001-2017
</metadata>
<g transform="translate(0.000000,260.000000) scale(0.100000,-0.100000)"
fill="#000000" stroke="none">
<path d="M1085 2584 c-629 -110 -1085 -650 -1085 -1284 0 -718 582 -1300 1300
-1300 718 0 1300 582 1300 1300 0 562 -359 1058 -893 1235 -56 18 -144 40
-196 49 -115 19 -316 19 -426 0z m409 -634 c186 -47 308 -162 362 -339 22 -74
26 -71 -94 -71 l-107 0 -17 48 c-24 66 -78 126 -146 159 -48 23 -72 28 -157
31 -83 3 -109 0 -156 -17 -100 -38 -176 -123 -220 -247 -30 -82 -38 -291 -15
-387 30 -129 97 -226 190 -275 47 -25 61 -27 166 -27 129 0 176 15 256 80 50
41 101 137 110 208 l7 47 -182 0 -181 0 0 85 0 85 290 0 290 0 0 -340 0 -340
-74 0 -74 0 -22 82 c-12 46 -23 84 -25 86 -2 2 -26 -21 -54 -51 -90 -95 -198
-137 -351 -137 -168 0 -293 50 -400 159 -71 72 -126 170 -155 276 -26 93 -31
303 -11 406 49 242 217 431 432 483 89 22 246 20 338 -4z"/>
</g>
</svg>
